/* XPM */
static char * kfloppy_xpm[] = {
"32 32 180 2",
"  	c None",
". 	c #000000",
"+ 	c #CEB18F",
"@ 	c #998D76",
"# 	c #ABABA9",
"$ 	c #878787",
"% 	c #A5A5A5",
"& 	c #958B79",
"* 	c #8D7F6A",
"= 	c #6A675F",
"- 	c #60605F",
"; 	c #4E4E4D",
"> 	c #5B5B5B",
", 	c #8B8B89",
"' 	c #727270",
") 	c #585857",
"! 	c #383838",
"~ 	c #4A4A48",
"{ 	c #6E6E69",
"] 	c #5E5E5B",
"^ 	c #3C3C3B",
"/ 	c #161413",
"( 	c #756754",
"_ 	c #7F6A4B",
": 	c #C3AD8E",
"< 	c #937B58",
"[ 	c #D2BC9E",
"} 	c #977E5B",
"| 	c #E0CBAE",
"1 	c #9A815E",
"2 	c #E3CEB1",
"3 	c #99805E",
"4 	c #810103",
"5 	c #BC4244",
"6 	c #B44A4C",
"7 	c #880204",
"8 	c #DDC6A6",
"9 	c #937B5A",
"0 	c #FEFEFC",
"a 	c #BEBEBC",
"b 	c #820108",
"c 	c #D2282B",
"d 	c #BC2D30",
"e 	c #A7A7FE",
"f 	c #DAC2A0",
"g 	c #8D7657",
"h 	c #403334",
"i 	c #D51B1E",
"j 	c #C01F22",
"k 	c #9898FE",
"l 	c #A0A0FE",
"m 	c #D1BB98",
"n 	c #867051",
"o 	c #C2C2C4",
"p 	c #642323",
"q 	c #400303",
"r 	c #8888FE",
"s 	c #9191FE",
"t 	c #020284",
"u 	c #C6B08E",
"v 	c #7F6B4D",
"w 	c #020204",
"x 	c #8C0909",
"y 	c #C11F22",
"z 	c #740A0B",
"A 	c #7979FD",
"B 	c #8181FE",
"C 	c #FDFDFB",
"D 	c #BAA483",
"E 	c #796549",
"F 	c #B8B8B7",
"G 	c #BEBEBE",
"H 	c #9D0103",
"I 	c #6A6AFD",
"J 	c #7272FD",
"K 	c #A5A5A4",
"L 	c #D0D0CE",
"M 	c #BDBDBC",
"N 	c #910809",
"O 	c #D71B1E",
"P 	c #790A0B",
"Q 	c #F2F2F0",
"R 	c #6666FC",
"S 	c #5A5AFD",
"T 	c #6262FD",
"U 	c #7070FD",
"V 	c #D3D3D4",
"W 	c #E2E2E1",
"X 	c #D2D2D1",
"Y 	c #7B2827",
"Z 	c #CD1E20",
"` 	c #B81F22",
" .	c #691D1C",
"..	c #C8C8CA",
"+.	c #4949CE",
"@.	c #02C2C4",
"#.	c #0222F4",
"$.	c #4B4BFD",
"%.	c #5353FD",
"&.	c #6161FD",
"*.	c #6767FD",
"=.	c #6C6CFD",
"-.	c #6F6FFD",
";.	c #E2E2E2",
">.	c #D8D8D6",
",.	c #AB1716",
"'.	c #981312",
").	c #C5C5C5",
"!.	c #4343CE",
"~.	c #0202C4",
"{.	c #3B3BFC",
"].	c #4343FD",
"^.	c #6565FD",
"/.	c #BCBBBA",
"(.	c #A6A4A8",
"_.	c #3C3CCE",
":.	c #2B2BFC",
"<.	c #3333FC",
"[.	c #5C5CFD",
"}.	c #F0F0EE",
"|.	c #4646FC",
"1.	c #1C1CFC",
"2.	c #2424FC",
"3.	c #B2B2B8",
"4.	c #7477D8",
"5.	c #5151FD",
"6.	c #4F4FFD",
"7.	c #4D4DFD",
"8.	c #4949FD",
"9.	c #F3F3F7",
"0.	c #0C0CFC",
"a.	c #1414FC",
"b.	c #BEBEBD",
"c.	c #4242FC",
"d.	c #3A3AFC",
"e.	c #BBBBC0",
"f.	c #BDBDBB",
"g.	c #4242FD",
"h.	c #3F3FFC",
"i.	c #3636FC",
"j.	c #2A2AFC",
"k.	c #2323FC",
"l.	c #BABAB9",
"m.	c #3939FC",
"n.	c #B9B9B8",
"o.	c #B8B8B6",
"p.	c #1212FC",
"q.	c #3030FC",
"r.	c #2C2CFC",
"s.	c #2727FC",
"t.	c #2121FC",
"u.	c #F6F6F4",
"v.	c #ACACAA",
"w.	c #6165D0",
"x.	c #A6A6AE",
"y.	c #A8A8AA",
"z.	c #2020FB",
"A.	c #1B1BF6",
"B.	c #2222FC",
"C.	c #1D1DFC",
"D.	c #08087D",
"E.	c #9F9F9F",
"F.	c #1616FB",
"G.	c #1414FB",
"H.	c #1313FB",
"I.	c #1818FC",
"J.	c #7E7E7C",
"K.	c #979799",
"L.	c #0C0CFB",
"M.	c #0B0BFB",
"N.	c #0909FB",
"O.	c #1515FC",
"P.	c #1111FC",
"Q.	c #0202FB",
"R.	c #0303FB",
"S.	c #0101FB",
"T.	c #0A0AFC",
"U.	c #0117F5",
"V.	c #0303FC",
"W.	c #0101FC",
"                          . . . . .       . .                   ",
"                      . . + @ # # $ .     . .                   ",
"                    . # % & * = - ; .     . .                   ",
"                  . > , ' ) ) ) ! .       . .                   ",
"                  . ~ { ] ^ / / .         . .                   ",
"                    . . . / ( _ .         . .                   ",
"                          . : < .         . .                   ",
"                          . [ } .         . .                   ",
"                          . | 1 .       . . . .                 ",
"                          . 2 3 . . . . 4 5 6 7 .               ",
"                        . . 8 9 . 0 a . b c d 7 .               ",
"                      . e . f g . 0 0 0 h i j .                 ",
"                    . k l . m n . o o . p i j q .               ",
"                  . r s t . u v . 0 0 w x i y z w . .           ",
"                . A B t C . D E . F G w H i j 7 w 0 a . .       ",
"              . I J t 0 0 0 . . K L M w N O y P w C Q t R . .   ",
"            . S T I U t t 0 C C V W X w Y Z `  .w ..t +.+.@.#.. ",
"          . $.%.t &.*.=.-.t t 0 0 0 ;.>.w ,.'.w ).t +.!.@.#.~.. ",
"        . {.].t a t t &.^.*.*.t t 0 0 0 /.w w (.t _._.@.#.~..   ",
"      . :.<.t a a a a t t [.[.[.S t t 0 0 Q }.t :.|.@.#.~..     ",
"    . 1.2.t 3.3.t 4.3.3.3.t t 5.6.7.8.t t 9.t :.2.@.#.~..       ",
"  . 0.a.t b.b.t c.c.d.e.b.f.b.t t g.h.{.i.t j.k.@.#.~..         ",
". #.@.t l.l.t c.m.d.l.l.n.o.o.t p.t t q.r.s.t.@.#.~..           ",
". ~.#.t u.v.v.w.d.x.# v.v.y.t p.z.A.p.t B.C.@.#.~..             ",
"  . . D.a u.u.E.E.E.E.E.E.t p.F.G.H.t I.I.@.#.~..               ",
"      . . J.a u.u.K.K.K.t p.L.M.N.t O.P.@.#.~..                 ",
"          . . J.a u.u.t p.Q.R.S.t 0.T.@.#.~..                   ",
"              . . J.a t @.U.S.t V.W.@.#.~..                     ",
"                  . . t #.@.@.W.W.@.#.~..                       ",
"                      . . ~.#.t @.#.~..                         ",
"                          . . t #.~..                           ",
"                              . . .                             "};
