/* XPM */
static char * large_kfloppy_xpm[] = {
"48 48 165 2",
"  	c None",
". 	c #020204",
"+ 	c #1A1A24",
"@ 	c #AA956C",
"# 	c #AFAFAF",
"$ 	c #C3C3C0",
"% 	c #AAAAAA",
"& 	c #0A0A0C",
"* 	c #E5E5E5",
"= 	c #BDBDBE",
"- 	c #CEB18F",
"; 	c #727272",
"> 	c #565654",
", 	c #4E4E4C",
"' 	c #060604",
") 	c #E2E2E2",
"! 	c #939393",
"~ 	c #444444",
"{ 	c #DFDFDF",
"] 	c #7E7E7C",
"^ 	c #DCDCDC",
"/ 	c #6F6F6A",
"( 	c #2E1604",
"_ 	c #221204",
": 	c #D9D9DA",
"< 	c #866E4C",
"[ 	c #321604",
"} 	c #D6D6D7",
"| 	c #C0AA8F",
"1 	c #B39C75",
"2 	c #361604",
"3 	c #D3D3D4",
"4 	c #CDB89D",
"5 	c #D0D0D1",
"6 	c #D9C6AC",
"7 	c #BCA27D",
"8 	c #CDCDCF",
"9 	c #E6D4BB",
"0 	c #C5A986",
"a 	c #CACACC",
"b 	c #02021C",
"c 	c #F2E2C9",
"d 	c #C7C7C9",
"e 	c #02022C",
"f 	c #F3E3CA",
"g 	c #866E4B",
"h 	c #AA0204",
"i 	c #C4C4C6",
"j 	c #020224",
"k 	c #816A49",
"l 	c #BEBEBC",
"m 	c #AE0204",
"n 	c #D20204",
"o 	c #C1C1C4",
"p 	c #02024C",
"q 	c #BABAFC",
"r 	c #EBD6B5",
"s 	c #7D6647",
"t 	c #FEFEFC",
"u 	c #E6E6E4",
"v 	c #CE0204",
"w 	c #E55055",
"x 	c #B2B2FC",
"y 	c #786345",
"z 	c #02020C",
"A 	c #AAAAFC",
"B 	c #2E2E2C",
"C 	c #EAD6B5",
"D 	c #745F43",
"E 	c #C2C2C4",
"F 	c #02023C",
"G 	c #A2A2FC",
"H 	c #A6A6FC",
"I 	c #020284",
"J 	c #E0CBAB",
"K 	c #705B40",
"L 	c #A20E0C",
"M 	c #820604",
"N 	c #9E9EFC",
"O 	c #D5C0A1",
"P 	c #6B583E",
"Q 	c #D0D0CE",
"R 	c #9B9B9A",
"S 	c #BA0E0E",
"T 	c #8E1212",
"U 	c #020234",
"V 	c #9696FC",
"W 	c #000000",
"X 	c #CBB598",
"Y 	c #67543C",
"Z 	c #9F9FA0",
"` 	c #8E8EFC",
" .	c #9292FC",
"..	c #635039",
"+.	c #8686FC",
"@.	c #8A8AFC",
"#.	c #8282FC",
"$.	c #6666FC",
"%.	c #7E7EFC",
"&.	c #01016C",
"*.	c #5050CE",
"=.	c #4D4DCE",
"-.	c #02DAD4",
";.	c #0202FC",
">.	c #7A7AFC",
",.	c #7676FC",
"'.	c #7272FC",
").	c #4A4644",
"!.	c #C9C9CE",
"~.	c #4949CE",
"{.	c #01B2AD",
"].	c #0202DC",
"^.	c #6E6EFC",
"/.	c #6A6AFC",
"(.	c #12129C",
"_.	c #16168C",
":.	c #4343CE",
"<.	c #4646CE",
"[.	c #0202C4",
"}.	c #6262FC",
"|.	c #5E5EFC",
"1.	c #3C3CCE",
"2.	c #3F3FCE",
"3.	c #22228C",
"4.	c #5A5AFC",
"5.	c #5656FC",
"6.	c #5252FC",
"7.	c #F6F6F4",
"8.	c #4646FC",
"9.	c #3636CE",
"0.	c #02C2C4",
"a.	c #4E4EFC",
"b.	c #4A4AFC",
"c.	c #3E3EFC",
"d.	c #3A3AFC",
"e.	c #7682B4",
"f.	c #4242FC",
"g.	c #3636FC",
"h.	c #3232FC",
"i.	c #2E2EFC",
"j.	c #2A2AFC",
"k.	c #2626FC",
"l.	c #0222F4",
"m.	c #B6B6B4",
"n.	c #2222FC",
"o.	c #1E1EFC",
"p.	c #AEAEAC",
"q.	c #1A1AFC",
"r.	c #F6F6FC",
"s.	c #A6A6A4",
"t.	c #9A9A9C",
"u.	c #1616FC",
"v.	c #1212FC",
"w.	c #0E0EFC",
"x.	c #06060C",
"y.	c #828284",
"z.	c #929294",
"A.	c #0A0AFC",
"B.	c #0606FC",
"C.	c #8A8A8C",
"D.	c #0E0E0C",
"E.	c #02AAAC",
"F.	c #121214",
"G.	c #161614",
"H.	c #020244",
"                                                                                                ",
"                                                                                                ",
"                                          . . . . . .           .                               ",
"                                    . . + @ # $ % # % &       . * .                             ",
"                                . . % = @ - @ ; ; > , '       . ) .                             ",
"                              . % $ ! ! ; > , , > > ~ .       . { .                             ",
"                              . ] ] ] > , , ~ > ~ . .         . ^ .                             ",
"                              . / / / , > ~ ( _ .             . : .                             ",
"                              . / / / > . . . < [             . } .                             ",
"                                . . . . . | 1 < 2             . 3 .                             ",
"                                        . 4 1 < [             . 5 .                             ",
"                                        . 6 7 < 2             . 8 .                             ",
"                                        . 9 0 < [             . a .                             ",
"                                        b c - < [           . . d . .                           ",
"                                        e f - g [ . .     . h h i h h .                         ",
"                                      j e f - k [ l l . . . m n o m m .                         ",
"                                    p q b r 0 s 2 t u l l b h v w h h .                         ",
"                                  e x x + r 0 y [ t t t u l . v w h .                           ",
"                                z A A A B C 7 D 2 E t t t t . v w h .                           ",
"                              F G H G I B J 1 K [ t E E t . L v w h M . .                       ",
"                            . N N N I t B O 1 P [ t t Q R . S v w m T . l U .                   ",
"                          b V V V I t t W X @ Y . Z Q Q Q . n v w h m . u l l b .               ",
"                        b `  .` I t t t . | @ ... Q Z Z Q . n v w h h . t t u l l . .           ",
"                      p +.@.+.#.I t t t t . . . Q Q Q Q R . S n w m T . t t t t I $.$.. .       ",
"                    U #.%.%.%.%.%.I I t t t t t E E t Q Q . L v w h M . E Q Q &.*.*.=.-.;..     ",
"                  z >.>.>.,.,.,.'.'.'.I I t t t t t E E t t ).L w M ).l !.Q &.~.~.~.{.;.]..     ",
"                e '.'.^.'.I ^.^.^././././.(._.t t t t t l l . L L M . l Q &.:.<.:.{.;.].[..     ",
"              p /./././.I l I I }.}.|.|.|.|.|.I I t t t t t l . . . l Q &.1.2.1.{.;.].[.e       ",
"            e $.$.}.}.I l l l l 3.I 4.5.4.5.5.6.5.I I t t t 7.t l t t I 8.8.9.0.;.].[.b         ",
"          z |.|.4.4.I l E l l l l l I I a.a.b.a.b.b.8.I I t t t t t I c.c.d.0.;.].[..           ",
"        F 5.5.5.5.I l l l I a.e.l l l l I I f.f.f.f.c.c.c.I I t t I g.g.g.0.;.].[.b             ",
"      p a.a.b.b.I l l l I 8.8.8.8.l l l l l I I d.d.d.g.g.h.h.I I i.h.i.0.;.].[.e               ",
"    . 0.8.8.8.I l E l I f.c.d.d.l E E l l l l l I I h.i.i.i.j.j.j.k.j.0.;.].[.b                 ",
"    . l.0.0.I m.m.m.I d.g.g.g.m.m.m.m.m.m.m.m.I j.k.I I k.n.n.n.n.o.0.;.].[..                   ",
"    . [.].l.I 7.p.p.p.e.i.i.p.p.p.p.p.p.p.p.I n.n.o.o.o.I I q.q.q.0.;.].[.j                     ",
"    . . [.[.I l 7.r.s.s.s.s.s.s.t.s.s.s.s.I o.q.q.q.u.u.v.I v.w.0.;.].[.j                       ",
"        . . I ] l l r.7.t.t.t.t.t.t.t.t.I v.v.v.w.v.w.w.I w.w.0.;.].[..                         ",
"            z x.y.] l l r.r.z.t.z.z.z.I w.w.A.A.A.B.A.I ;.;.0.;.].[.z                           ",
"                . . ] ] l l 7.r.C.C.I B.;.B.;.;.;.;.I ;.;.0.;.].[.U                             ",
"                    . . ] ] l l 7.D.;.;.;.;.;.;.;.I ;.;.0.;.].[.b                               ",
"                        . . ] ] l & 0.0.;.;.;.;.I ;.;.E.;.].[..                                 ",
"                            F.G.] . ].l.0.0.;.I ;.;.E.;.].[.b                                   ",
"                                . . [.[.].l.0.I ;.E.;.].[.e                                     ",
"                                    . b [.[.].I E.;.].[.z                                       ",
"                                        . . [.I ;.].[..                                         ",
"                                            . j H.F j                                           ",
"                                                                                                ",
"                                                                                                "};
