/* XPM */
/* Drawn  by Mark Donohoe and Nico Schirwing for the K Desktop Environment */
/* See http://www.kde.org */
static char*kfloppy[]={
"16 16 13 1",
"# c #000000",
"i c #c0c0c0",
"g c #ffffff",
"a c #808080",
"c c #585858",
"b c #a0a0a4",
"e c #000080",
"f c #c00000",
"k c #0000c0",
"j c #00c0c0",
"h c #0000ff",
"d c #ff8000",
". c None",
"......##a#......",
".....#bc#..#....",
"......#d#..#....",
".......d#..#....",
"......#d#.##....",
".....#ed###f....",
"....#egd#g#f....",
"...#egg#gg#f##..",
"..#eeheggg#fge#.",
".#eihiehegggej#.",
"#eghiiiieheej#..",
"#eigbbahhhej#...",
".##abghhhej#....",
"...##ahjej#.....",
".....##ke#......",
".......##......."};

